<svg width="110" height="80" xmlns="http://www.w3.org/2000/svg"><g fill="none" fill-rule="evenodd"><path d="M0 0h110v80H0z"/><g fill-rule="nonzero"><g transform="translate(5 5)"><rect fill="#000" width="100" height="50" rx="6.3"/><rect fill="#FFF" x="1.429" y="1.429" width="97.143" height="47.143" rx="4.9"/><path d="M52.677 34.065c.215.163.477.251.746.251h5.978a10.938 10.938 0 1 0 5.928-11.279l-4.043-5.774 1.06-2.497h.642a1.641 1.641 0 1 0 0-3.282h-7.52a1.641 1.641 0 1 0 0 3.282h4.799l-.638 1.504H40.774a3.691 3.691 0 0 0-1.734-4.18l-.721-.41a1.64 1.64 0 0 1 .812-3.067h5.4a1.094 1.094 0 0 0 0-2.187h-5.4a3.828 3.828 0 0 0-1.895 7.155l.721.41c.68.388.95 1.233.619 1.943l-3.43 7.356a10.937 10.937 0 0 0-5.38-1.415c-6.041 0-10.938 4.897-10.938 10.938 0 6.04 4.897 10.937 10.938 10.937 6.04 0 10.937-4.897 10.937-10.937 0-3.158-1.364-6.161-3.743-8.238l.855-1.832 14.862 11.322zm-22.911 8.044a9.297 9.297 0 1 1 4.684-17.327l-2.374 5.091c-.143.305-.375.56-.667.728l-2.19 1.264a1.094 1.094 0 0 0 1.094 1.895l2.19-1.265a3.827 3.827 0 0 0 1.555-1.697l2.175-4.664a9.297 9.297 0 0 1-6.467 15.975zm40.468 0a9.297 9.297 0 0 1-9.174-7.793h9.445a1.504 1.504 0 0 0 1.232-2.366l-5.329-7.61a9.299 9.299 0 0 1 13.123 8.472 9.297 9.297 0 0 1-9.297 9.297zm-9.247-10.254a9.297 9.297 0 0 1 3.33-6.213l4.35 6.213h-7.68zm-5.3 0l4.961-11.69 2.832 4.045a10.937 10.937 0 0 0-4.141 7.645h-3.653.001zm-2.473-.475L39.122 20.645l.976-1.915h18.486l-5.37 12.65z" fill="#000"/></g></g></g></svg>