<?xml version="1.0" encoding="UTF-8"?>
<svg xmlns="http://www.w3.org/2000/svg" id="_Слой_1" data-name=" Слой 1" width="110" height="97" viewBox="0 0 110 97">
  
  <rect width="110" height="97" fill="none" />
  <path d="m11.28,5.49h87.4c3.48,0,6.3,2.82,6.3,6.3h0v54.07c0,3.48-2.82,6.3-6.3,6.3H11.28c-3.48,0-6.3-2.82-6.3-6.3h0V11.79c0-3.48,2.82-6.3,6.3-6.3Z" />
  <path d="m11.55,7.15h86.87c2.71,0,4.9,2.19,4.9,4.9h0v53.53c0,2.71-2.19,4.9-4.9,4.9H11.55c-2.71,0-4.9-2.19-4.9-4.9h0V12.05c0-2.71,2.19-4.9,4.9-4.9h0Z" fill="#fff" />
  <g>
    <path d="m93.83,57.15c.2-.01.36-.15.48-.42.13-.29.19-.6.19-.92-.05-1.72-.62-3.19-1.73-4.38-1.11-1.2-2.46-1.82-4.07-1.87-.88.01-1.74.22-2.52.61-.82.4-1.51.94-2.07,1.62-.46.56-.79,1.22-.97,1.92-.19.73-.29,1.58-.3,2.54.03,2.04.65,3.66,1.88,4.85,1.22,1.2,2.7,1.81,4.44,1.84.79,0,1.6-.23,2.42-.7.83-.47,1.64-1.2,2.42-2.2l-2.17-1.24c-.43.56-.85.98-1.25,1.26s-.88.43-1.42.43c-.63.03-1.32-.19-2.09-.67-.77-.47-1.19-1.37-1.25-2.68,0,0,8.03,0,8.04,0Z" />
    <path d="m16.86,50v12.5h2.68v-5.8c.12-.02.23-.03.35-.04.12-.01.23-.02.32-.02,1.23.08,2.16.74,2.8,1.98.68,1.31,1.38,2.61,2.11,3.89h3.35c-.77-.79-1.41-1.69-1.88-2.69-.47-.97-1-1.91-1.6-2.81-.54-.83-1.37-1.41-2.33-1.65.54-.16,1.01-.49,1.43-1,.41-.51.85-1.01,1.31-1.49.45-.48,1.07-.78,1.72-.85l-.67-2.23c-.93.13-1.76.57-2.51,1.32-.72.72-1.42,1.47-2.11,2.22-.66.73-1.32,1.12-1.98,1.17-.05,0-.11,0-.16,0-.05,0-.11-.01-.16-.03v-4.47s-2.68,0-2.68,0Z" />
    <path d="m38.51,49.56c-1.11.07-1.91.37-2.4.89-.49.52-.73.82-.72.89-.2-.35-.35-.8-.45-1.34h-2.23v17.86h2.68v-6.48c.02.16.32.45.89.87.58.41,1.32.65,2.23.7.49.02,1.17-.15,2.04-.5.87-.35,1.67-1.01,2.39-1.98.72-.97,1.1-2.38,1.15-4.22-.09-2.62-.74-4.41-1.95-5.36-1.21-.95-2.42-1.4-3.63-1.34,0,0,0,0,0,0Z" />
    <path d="m38.51,52.01c.8,0,1.48.38,2.04,1.12.55.74.84,1.78.87,3.12-.02,1.36-.31,2.44-.87,3.24-.55.8-1.23,1.21-2.04,1.23-.61-.01-1.21-.17-1.74-.47-.57-.31-1.04-.76-1.38-1.31v-4.69c.34-.68.79-1.22,1.33-1.62.52-.39,1.14-.6,1.79-.61Z" fill="#fff" />
    <path d="m53.88,49.56c-1.71.03-3.09.64-4.16,1.84-1.06,1.2-1.61,2.82-1.65,4.85.03,2.04.58,3.66,1.65,4.85,1.06,1.2,2.45,1.81,4.16,1.84,1.71-.03,3.09-.64,4.16-1.84,1.06-1.2,1.61-2.82,1.65-4.85-.03-2.04-.58-3.65-1.65-4.85-1.06-1.2-2.45-1.81-4.16-1.84Z" />
    <path d="m53.88,51.79c.91.02,1.66.43,2.23,1.23.58.8.87,1.88.89,3.24-.02,1.36-.32,2.44-.89,3.24-.58.8-1.32,1.21-2.23,1.23-.91-.02-1.65-.43-2.23-1.23s-.87-1.88-.89-3.24c.02-1.36.32-2.44.89-3.24s1.32-1.21,2.23-1.23Z" fill="#fff" />
    <polygon points="64.37 62.5 67.05 62.5 67.72 53.8 71.29 60.94 74.86 53.8 75.53 62.5 78.21 62.5 77.09 50 74.41 50 71.29 56.25 68.16 50 65.48 50 64.37 62.5" />
    <path d="m88.69,51.79c.69,0,1.34.28,1.94.83.6.55.92,1.17.96,1.85,0,.1-.02.21-.05.31-.04.09-.09.13-.17.14h-5.58c.03-1.1.33-1.9.91-2.38.56-.47,1.26-.74,1.99-.75h0Z" fill="#fff" />
  </g>
  <g>
    <rect x="49.71" y="36.84" width="14.4" height="1.99" />
    <path d="m42.71,33.86l2.8-15.72c.2-1.09,1.2-1.79,2.3-1.59h0l-3.1,17.71s-2-.4-2-.4Z" />
    <polygon points="43.8 29.6 45.48 28.52 51.45 37.71 49.77 38.79 43.8 29.6" />
    <ellipse cx="67.71" cy="37.74" rx="4.2" ry="4.18" />
    <ellipse cx="43.01" cy="37.74" rx="4.2" ry="4.18" />
    <path d="m61.31,37.84c-.6-.1-.9-.6-.8-1.19,1-4.78,5.2-6.07,7.3-6.07h0c.5,0,1,.4,1,.99,0,.5-.4.99-1,.99-.2,0-4.5.1-5.4,4.48-.1.5-.5.8-1,.8-.1,0-.2,0-.1,0Z" />
    <path d="m45.71,17.74h0c0-.9.7-1.59,1.6-1.59h2c.9,0,1.6.7,1.6,1.59h0c0,.9-.7,1.59-1.6,1.59h-2c-.9,0-1.6-.7-1.6-1.59Z" />
  </g>
</svg>
